<svg xmlns="http://www.w3.org/2000/svg" viewBox="0 0 1028 80" role="img" aria-label="rpiv-voice live audio equalizer" preserveAspectRatio="xMidYMid meet">
  <title>rpiv-voice live audio equalizer</title>
  <defs>
    <linearGradient id="eqFade" x1="0" x2="1" y1="0" y2="0">
      <stop offset="0%" stop-color="#6FD0B8" stop-opacity="0.05"/>
      <stop offset="50%" stop-color="#6FD0B8" stop-opacity="0.95"/>
      <stop offset="100%" stop-color="#6FD0B8" stop-opacity="0.05"/>
    </linearGradient>
  </defs>
  <g fill="url(#eqFade)">
    <rect x="0" y="39" width="6" height="2" rx="3"/>
    <rect x="14" y="39" width="6" height="2" rx="3"/>
    <rect x="28" y="39" width="6" height="2" rx="3"/>
    <rect x="42" y="39" width="6" height="2" rx="3"/>
    <rect x="56" y="39" width="6" height="2" rx="3"/>
    <rect x="70" y="37" width="6" height="6" rx="3"/>
    <rect x="84" y="36" width="6" height="8" rx="3"/>
    <rect x="98" y="33" width="6" height="14" rx="3"/>
    <rect x="112" y="29" width="6" height="22" rx="3"/>
    <rect x="126" y="30" width="6" height="20" rx="3"/>
    <rect x="140" y="27" width="6" height="26" rx="3"/>
    <rect x="154" y="28" width="6" height="24" rx="3"/>
    <rect x="168" y="18" width="6" height="44" rx="3"/>
    <rect x="182" y="19" width="6" height="42" rx="3"/>
    <rect x="196" y="20" width="6" height="40" rx="3"/>
    <rect x="210" y="17" width="6" height="46" rx="3"/>
    <rect x="224" y="12" width="6" height="56" rx="3"/>
    <rect x="238" y="8" width="6" height="64" rx="3"/>
    <rect x="252" y="16" width="6" height="48" rx="3"/>
    <rect x="266" y="13" width="6" height="54" rx="3"/>
    <rect x="280" y="11" width="6" height="58" rx="3"/>
    <rect x="294" y="7" width="6" height="66" rx="3"/>
    <rect x="308" y="13" width="6" height="54" rx="3"/>
    <rect x="322" y="11" width="6" height="58" rx="3"/>
    <rect x="336" y="5" width="6" height="70" rx="3"/>
    <rect x="350" y="19" width="6" height="42" rx="3"/>
    <rect x="364" y="9" width="6" height="62" rx="3"/>
    <rect x="378" y="16" width="6" height="48" rx="3"/>
    <rect x="392" y="16" width="6" height="48" rx="3"/>
    <rect x="406" y="9" width="6" height="62" rx="3"/>
    <rect x="420" y="18" width="6" height="44" rx="3"/>
    <rect x="434" y="17" width="6" height="46" rx="3"/>
    <rect x="448" y="16" width="6" height="48" rx="3"/>
    <rect x="462" y="9" width="6" height="62" rx="3"/>
    <rect x="476" y="10" width="6" height="60" rx="3"/>
    <rect x="490" y="12" width="6" height="56" rx="3"/>
    <rect x="504" y="10" width="6" height="60" rx="3"/>
    <rect x="518" y="20" width="6" height="40" rx="3"/>
    <rect x="532" y="9" width="6" height="62" rx="3"/>
    <rect x="546" y="11" width="6" height="58" rx="3"/>
    <rect x="560" y="16" width="6" height="48" rx="3"/>
    <rect x="574" y="14" width="6" height="52" rx="3"/>
    <rect x="588" y="11" width="6" height="58" rx="3"/>
    <rect x="602" y="16" width="6" height="48" rx="3"/>
    <rect x="616" y="13" width="6" height="54" rx="3"/>
    <rect x="630" y="13" width="6" height="54" rx="3"/>
    <rect x="644" y="5" width="6" height="70" rx="3"/>
    <rect x="658" y="8" width="6" height="64" rx="3"/>
    <rect x="672" y="6" width="6" height="68" rx="3"/>
    <rect x="686" y="7" width="6" height="66" rx="3"/>
    <rect x="700" y="12" width="6" height="56" rx="3"/>
    <rect x="714" y="16" width="6" height="48" rx="3"/>
    <rect x="728" y="5" width="6" height="70" rx="3"/>
    <rect x="742" y="14" width="6" height="52" rx="3"/>
    <rect x="756" y="15" width="6" height="50" rx="3"/>
    <rect x="770" y="18" width="6" height="44" rx="3"/>
    <rect x="784" y="18" width="6" height="44" rx="3"/>
    <rect x="798" y="13" width="6" height="54" rx="3"/>
    <rect x="812" y="21" width="6" height="38" rx="3"/>
    <rect x="826" y="15" width="6" height="50" rx="3"/>
    <rect x="840" y="21" width="6" height="38" rx="3"/>
    <rect x="854" y="20" width="6" height="40" rx="3"/>
    <rect x="868" y="26" width="6" height="28" rx="3"/>
    <rect x="882" y="26" width="6" height="28" rx="3"/>
    <rect x="896" y="30" width="6" height="20" rx="3"/>
    <rect x="910" y="32" width="6" height="16" rx="3"/>
    <rect x="924" y="33" width="6" height="14" rx="3"/>
    <rect x="938" y="35" width="6" height="10" rx="3"/>
    <rect x="952" y="37" width="6" height="6" rx="3"/>
    <rect x="966" y="39" width="6" height="2" rx="3"/>
    <rect x="980" y="39" width="6" height="2" rx="3"/>
    <rect x="994" y="39" width="6" height="2" rx="3"/>
    <rect x="1008" y="39" width="6" height="2" rx="3"/>
    <rect x="1022" y="39" width="6" height="2" rx="3"/>
  </g>
</svg>
