<svg xmlns="http://www.w3.org/2000/svg" viewBox="0 0 540 1200" role="img" aria-label="rpiv-voice — Local voice dictation for Pi" preserveAspectRatio="xMidYMid meet">
  <title>rpiv-voice — Local voice dictation for Pi</title>
  <defs>
    <style>
      .mono   { font-family: 'JetBrains Mono', 'Fira Code', 'SFMono-Regular', ui-monospace, Menlo, Consolas, monospace; }
      .ink    { fill: #F4EFE6; }
      .paper  { fill: #0E0D0B; }
      .muted  { fill: #7A7468; }
      .dim    { fill: #4A463F; }
      .fade   { fill: #6A645A; }
      .accent { fill: #FF7A3D; }
      .mint   { fill: #6FD0B8; }
      .rec    { fill: #E5594E; }
      .rule   { stroke: #2A2620; }
      .rule-bright { stroke: #FF7A3D; }
      .rule-mint   { stroke: #6FD0B8; }
    </style>
    <filter id="grain" x="0" y="0" width="100%" height="100%">
      <feTurbulence type="fractalNoise" baseFrequency="1.4" numOctaves="2" seed="31"/>
      <feColorMatrix values="0 0 0 0 0.96  0 0 0 0 0.94  0 0 0 0 0.88  0 0 0 0.06 0"/>
    </filter>
    <pattern id="grid" width="32" height="32" patternUnits="userSpaceOnUse">
      <path d="M32 0 H0 V32" fill="none" stroke="#161411" stroke-width="0.5"/>
    </pattern>
    <pattern id="dots" width="6" height="6" patternUnits="userSpaceOnUse">
      <circle cx="3" cy="3" r="0.6" fill="#231F1A"/>
    </pattern>
    <radialGradient id="vignette" cx="50%" cy="50%" r="70%">
      <stop offset="60%" stop-color="#0E0D0B" stop-opacity="0"/>
      <stop offset="100%" stop-color="#000" stop-opacity="0.55"/>
    </radialGradient>
    <radialGradient id="recPulse" cx="50%" cy="50%" r="50%">
      <stop offset="0%" stop-color="#E5594E" stop-opacity="0.45"/>
      <stop offset="100%" stop-color="#E5594E" stop-opacity="0"/>
    </radialGradient>
  </defs>

  <rect width="540" height="1200" class="paper"/>
  <rect width="540" height="1200" fill="url(#grid)" opacity="0.55"/>
  <rect width="540" height="1200" fill="url(#dots)" opacity="0.4"/>
  <rect width="540" height="1200" filter="url(#grain)" opacity="0.5"/>
  <rect width="540" height="1200" fill="url(#vignette)"/>

  <g class="rule-bright" stroke-width="1" fill="none" opacity="0.95">
    <path d="M24 56 L40 56 M40 40 L40 56"/>
    <path d="M516 56 L500 56 M500 40 L500 56"/>
    <path d="M24 1144 L40 1144 M40 1160 L40 1144"/>
    <path d="M516 1144 L500 1144 M500 1160 L500 1144"/>
  </g>

  <line x1="40" y1="56" x2="500" y2="56" class="rule" stroke-width="1"/>
  <text class="mono muted" x="40"  y="44" font-size="9" letter-spacing="2">@JUICESHARP &#183; PI EXTENSION &#183; NO. 010 &#8211; VOICE</text>
  <text class="mono muted" x="500" y="44" font-size="9" letter-spacing="2" text-anchor="end">MIT &#183; v1.3 &#183; 540 &#215; 1200</text>

  <text class="mono ink" x="40" y="124" font-size="56" font-weight="700" letter-spacing="-2">rpiv<tspan class="accent">-</tspan>voice</text>
  <line x1="40" y1="138" x2="100" y2="138" class="rule-bright" stroke-width="2"/>
  <text class="mono muted" x="40" y="160" font-size="12" letter-spacing="0.3">Talk to Pi instead of typing. Whisper. On your laptop.</text>
  <text class="mono dim"   x="40" y="178" font-size="9" letter-spacing="1.4">LOCAL STT &#183; ~99 LANGUAGES &#183; NO CLOUD &#183; NO API KEYS</text>

  <text class="mono muted" x="40"  y="222" font-size="9" letter-spacing="2">FIG. 01 &#8212; DICTATION OVERLAY</text>
  <text class="mono muted" x="500" y="222" font-size="9" letter-spacing="2" text-anchor="end">cmd: /voice</text>
  <line x1="40" y1="232" x2="500" y2="232" class="rule" stroke-width="0.75"/>

  <!-- HERO 1: dictation overlay -->
  <g transform="translate(40 250)">
    <rect x="0" y="0" width="460" height="232" fill="#13110D" stroke="#2A2620" stroke-width="1"/>

    <!-- transcript: committed + dim partial -->
    <text class="mono ink"  x="14" y="32" font-size="13">Refactor the splash runner so download</text>
    <text class="mono ink"  x="14" y="50" font-size="13">progress shows percent and bytes on a</text>
    <text class="mono ink"  x="14" y="68" font-size="13">single line.</text>
    <text class="mono fade" x="14" y="88" font-size="13">Add a unit test for the hallucination&#8230;</text>

    <!-- mint divider -->
    <line x1="14" y1="108" x2="446" y2="108" class="rule-mint" stroke-width="1.1" stroke-opacity="0.65"/>

    <!-- equalizer waveform -->
    <g transform="translate(14 122)" class="mint" fill="#6FD0B8" opacity="0.85">
      <rect x="0"   y="14" width="6" height="6"/>
      <rect x="10"  y="10" width="6" height="14"/>
      <rect x="20"  y="6"  width="6" height="22"/>
      <rect x="30"  y="2"  width="6" height="30"/>
      <rect x="40"  y="8"  width="6" height="18"/>
      <rect x="50"  y="0"  width="6" height="34"/>
      <rect x="60"  y="6"  width="6" height="22"/>
      <rect x="70"  y="2"  width="6" height="30"/>
      <rect x="80"  y="10" width="6" height="14"/>
      <rect x="90"  y="4"  width="6" height="26"/>
      <rect x="100" y="0"  width="6" height="34"/>
      <rect x="110" y="6"  width="6" height="22"/>
      <rect x="120" y="2"  width="6" height="30"/>
      <rect x="130" y="8"  width="6" height="18"/>
      <rect x="140" y="4"  width="6" height="26"/>
      <rect x="150" y="10" width="6" height="14"/>
      <rect x="160" y="6"  width="6" height="22"/>
      <rect x="170" y="12" width="6" height="10"/>
      <rect x="180" y="8"  width="6" height="18"/>
      <rect x="190" y="14" width="6" height="6"/>
      <rect x="200" y="10" width="6" height="14"/>
      <rect x="210" y="14" width="6" height="6"/>
      <rect x="220" y="16" width="6" height="2"/>
      <rect x="230" y="16" width="6" height="2"/>
      <rect x="240" y="16" width="6" height="2"/>
      <rect x="250" y="16" width="6" height="2"/>
      <rect x="260" y="16" width="6" height="2"/>
      <rect x="270" y="16" width="6" height="2"/>
      <rect x="280" y="16" width="6" height="2"/>
      <rect x="290" y="16" width="6" height="2"/>
      <rect x="300" y="16" width="6" height="2"/>
      <rect x="310" y="16" width="6" height="2"/>
      <rect x="320" y="16" width="6" height="2"/>
      <rect x="330" y="16" width="6" height="2"/>
      <rect x="340" y="16" width="6" height="2"/>
      <rect x="350" y="16" width="6" height="2"/>
      <rect x="360" y="16" width="6" height="2"/>
      <rect x="370" y="16" width="6" height="2"/>
      <rect x="380" y="16" width="6" height="2"/>
      <rect x="390" y="16" width="6" height="2"/>
      <rect x="400" y="16" width="6" height="2"/>
      <rect x="410" y="16" width="6" height="2"/>
      <rect x="420" y="16" width="6" height="2"/>
      <rect x="430" y="16" width="6" height="2"/>
    </g>

    <!-- status row: red dot + timer + key hints -->
    <circle cx="22" cy="184" r="11" fill="url(#recPulse)"/>
    <text class="rec mono" x="14" y="190" font-size="13">&#9679;</text>
    <text class="mono" font-size="11" y="190">
      <tspan x="34" class="muted" font-weight="700">0:14</tspan>
      <tspan dx="10" class="dim">&#183;</tspan>
      <tspan dx="10" class="ink"   font-weight="700">Enter</tspan>
      <tspan dx="6"  class="muted">paste</tspan>
      <tspan dx="10" class="dim">&#183;</tspan>
      <tspan dx="10" class="ink"   font-weight="700">Space</tspan>
      <tspan dx="6"  class="muted">pause</tspan>
      <tspan dx="10" class="dim">&#183;</tspan>
      <tspan dx="10" class="ink"   font-weight="700">Tab</tspan>
      <tspan dx="6"  class="muted">settings</tspan>
      <tspan dx="10" class="dim">&#183;</tspan>
      <tspan dx="10" class="ink"   font-weight="700">Esc</tspan>
    </text>

    <!-- footnote -->
    <line x1="14" y1="206" x2="446" y2="206" class="rule" stroke-width="0.5" stroke-dasharray="1 3"/>
    <text class="mono dim" x="14"  y="222" font-size="9" letter-spacing="1.4">VAD-CHUNKED &#183; LIVE PARTIAL &#183; PASTE ON ENTER</text>
  </g>

  <!-- FIG 02 — Settings screen -->
  <text class="mono muted" x="40"  y="514" font-size="9" letter-spacing="2">FIG. 02 &#8212; SETTINGS (TAB)</text>
  <text class="mono muted" x="500" y="514" font-size="9" letter-spacing="2" text-anchor="end">~/.config/rpiv-voice/voice.json</text>
  <line x1="40" y1="524" x2="500" y2="524" class="rule" stroke-width="0.75"/>

  <g transform="translate(40 542)">
    <rect x="0" y="0" width="460" height="172" fill="#13110D" stroke="#2A2620" stroke-width="1"/>

    <text class="mono accent" x="14" y="22" font-size="11" letter-spacing="1.4" font-weight="700">&#9670; SETTINGS</text>
    <text class="mono dim"   x="446" y="22" font-size="9" letter-spacing="1.2" text-anchor="end">Ctrl-S to save</text>

    <line x1="14" y1="34" x2="446" y2="34" class="rule" stroke-width="0.5" stroke-dasharray="1 3"/>

    <text class="mono muted" x="14"  y="58" font-size="11">microphone</text>
    <text class="mono ink"   x="446" y="58" font-size="11" text-anchor="end">MacBook Pro Microphone (default)</text>

    <text class="mono muted" x="14"  y="84" font-size="11">language</text>
    <text class="mono ink"   x="446" y="84" font-size="11" text-anchor="end">auto &#8212; whisper-base int8</text>

    <text class="mono muted" x="14"  y="110" font-size="11">filter whisper noise</text>
    <g transform="translate(380 96)">
      <rect x="0" y="0" width="66" height="20" rx="10" fill="#1B0F08" stroke="#2A2620" stroke-width="0.75"/>
      <circle cx="50" cy="10" r="7" fill="#FF7A3D"/>
      <text class="mono accent" x="14" y="14" font-size="9" letter-spacing="1.2" font-weight="700">ON</text>
    </g>

    <line x1="14" y1="128" x2="446" y2="128" class="rule" stroke-width="0.5" stroke-dasharray="1 3"/>
    <text class="mono dim" x="14"  y="148" font-size="9" letter-spacing="1.4">strips "thanks for watching" &#183; "[Music]" &#183; loop tokens</text>
  </g>

  <!-- Pipeline strip -->
  <text class="mono muted" x="40"  y="754" font-size="9" letter-spacing="2">FIG. 03 &#8212; PIPELINE</text>
  <line x1="40" y1="764" x2="500" y2="764" class="rule" stroke-width="0.75"/>

  <g transform="translate(40 786)">
    <!-- 4 stages -->
    <g>
      <rect x="0"   y="0" width="100" height="48" fill="#15120E" stroke="#2A2620" stroke-width="0.6"/>
      <text class="mono mint"  x="50" y="20" font-size="10" font-weight="700" letter-spacing="1.2" text-anchor="middle">SPEAK</text>
      <text class="mono muted" x="50" y="36" font-size="9" letter-spacing="1.2" text-anchor="middle">decibri mic</text>
    </g>
    <text class="accent mono" x="108" y="30" font-size="14" font-weight="700">&#8594;</text>
    <g>
      <rect x="120" y="0" width="100" height="48" fill="#15120E" stroke="#2A2620" stroke-width="0.6"/>
      <text class="mono mint"  x="170" y="20" font-size="10" font-weight="700" letter-spacing="1.2" text-anchor="middle">VAD CHUNK</text>
      <text class="mono muted" x="170" y="36" font-size="9" letter-spacing="1.2" text-anchor="middle">silero</text>
    </g>
    <text class="accent mono" x="228" y="30" font-size="14" font-weight="700">&#8594;</text>
    <g>
      <rect x="240" y="0" width="100" height="48" fill="#15120E" stroke="#2A2620" stroke-width="0.6"/>
      <text class="mono mint"  x="290" y="20" font-size="10" font-weight="700" letter-spacing="1.2" text-anchor="middle">DECODE</text>
      <text class="mono muted" x="290" y="36" font-size="9" letter-spacing="1.2" text-anchor="middle">sherpa-onnx</text>
    </g>
    <text class="accent mono" x="348" y="30" font-size="14" font-weight="700">&#8594;</text>
    <g>
      <rect x="360" y="0" width="100" height="48" fill="#15120E" stroke="#2A2620" stroke-width="0.6"/>
      <text class="mono accent" x="410" y="20" font-size="10" font-weight="700" letter-spacing="1.2" text-anchor="middle">PASTE</text>
      <text class="mono muted"  x="410" y="36" font-size="9" letter-spacing="1.2" text-anchor="middle">Pi editor</text>
    </g>
  </g>

  <text class="mono dim" x="40" y="868" font-size="9" letter-spacing="1.4">EVERY STAGE LOCAL &#183; AUDIO NEVER LEAVES THE LAPTOP</text>

  <!-- Stat strip -->
  <line x1="40" y1="896" x2="500" y2="896" class="rule" stroke-width="0.5" stroke-dasharray="1 3"/>
  <g transform="translate(40 916)">
    <text class="mono dim"    x="0"   y="12" font-size="8.5" letter-spacing="1.6">MODEL</text>
    <text class="mono ink"    x="0"   y="32" font-size="13" font-weight="700">whisper-base</text>
    <text class="mono muted"  x="0"   y="48" font-size="9" letter-spacing="1.2">multilingual int8</text>

    <text class="mono dim"    x="160" y="12" font-size="8.5" letter-spacing="1.6">DOWNLOAD</text>
    <text class="mono ink"    x="160" y="32" font-size="13" font-weight="700">~198 MB</text>
    <text class="mono muted"  x="160" y="48" font-size="9" letter-spacing="1.2">first run only</text>

    <text class="mono dim"    x="300" y="12" font-size="8.5" letter-spacing="1.6">ON DISK</text>
    <text class="mono ink"    x="300" y="32" font-size="13" font-weight="700">~157 MB</text>
    <text class="mono muted"  x="300" y="48" font-size="9" letter-spacing="1.2">~/.pi/models/</text>

    <text class="mono dim"    x="400" y="12" font-size="8.5" letter-spacing="1.6">LANGUAGES</text>
    <text class="mono ink"    x="400" y="32" font-size="13" font-weight="700">~99</text>
    <text class="mono muted"  x="400" y="48" font-size="9" letter-spacing="1.2">autodetect</text>
  </g>

  <line x1="40" y1="1100" x2="500" y2="1100" class="rule" stroke-width="0.5" stroke-dasharray="1 3"/>
  <text class="mono muted" x="40" y="1118" font-size="9" letter-spacing="1.8">SPEAK &#8594; CHUNK &#8594; DECODE &#8594; PASTE</text>

  <line x1="40" y1="1144" x2="500" y2="1144" class="rule" stroke-width="1"/>
  <text class="mono muted" x="40" y="1168" font-size="9.5" letter-spacing="1.8">
    <tspan class="accent">&#9654;</tspan>  pi install npm:@juicesharp/rpiv-voice
  </text>
  <text class="mono muted" x="500" y="1168" font-size="9" letter-spacing="2" text-anchor="end">ON-DEVICE</text>
</svg>
